<svg xmlns="http://www.w3.org/2000/svg" viewBox="0 0 152 155" width="152" height="155">
	<defs>
		<clipPath clipPathUnits="userSpaceOnUse" id="cp1">
			<path d="M-316 -2649L2416 -2649L2416 1623L-316 1623Z" />
		</clipPath>
		<clipPath clipPathUnits="userSpaceOnUse" id="cp2">
			<path d="M0 76.81C0 118.79 34.03 152.81 76 152.81C117.97 152.81 152 118.79 152 76.81C152 34.84 117.97 0.81 76 0.81C34.03 0.81 0 34.84 0 76.81Z" />
		</clipPath>
	</defs>
	<style>
		tspan { white-space:pre }
		.shp0 { fill: #f0f0f0 } 
		.shp1 { fill: #9ba6b8 } 
	</style>
	<g id="Page 2" clip-path="url(#cp1)">
		<path id="Path 318" class="shp0" d="M152 76.81C152 118.79 117.97 152.81 76 152.81C34.03 152.81 0 118.79 0 76.81C0 34.84 34.03 0.81 76 0.81C117.97 0.81 152 34.84 152 76.81Z" />
		<g id="Mask" clip-path="url(#cp2)">
			<path id="Path 320" class="shp1" d="M106.84 108.55C101.45 106.19 98.24 103.05 97.31 99.27C95.67 92.41 101.63 84.92 101.6 84.92C102.06 84.45 109.55 70 109.55 46.47C109.55 28.55 102.38 8.78 77.04 8.78C51.69 8.78 44.52 28.55 44.52 46.47C44.52 70 52.01 84.45 52.48 84.92C52.44 84.92 58.44 92.41 56.76 99.27C55.83 103.05 52.65 106.16 47.23 108.55C16.17 118.33 4 125.29 4 135.57L4 146.71C4 150.78 8.07 154.81 12.1 154.81L141.9 154.81C145.97 154.81 150 150.74 150 146.71L150 135.57C150.04 125.29 137.9 118.33 106.84 108.55Z" />
		</g>
	</g>
</svg>